<mxfile host="65bd71144e">
    <diagram id="BqF9gWCEwMpaWxjTifD0" name="Page-1">
        <mxGraphModel dx="1243" dy="721" grid="1" gridSize="10" guides="1" tooltips="1" connect="1" arrows="1" fold="1" page="1" pageScale="1" pageWidth="827" pageHeight="1169" math="0" shadow="0">
            <root>
                <mxCell id="0"/>
                <mxCell id="1" parent="0"/>
                <mxCell id="2" value="" style="rounded=1;whiteSpace=wrap;html=1;" vertex="1" parent="1">
                    <mxGeometry x="120" y="200" width="370" height="230" as="geometry"/>
                </mxCell>
                <mxCell id="7" value="http/https" style="edgeStyle=none;html=1;fillColor=#f8cecc;strokeColor=#b85450;strokeWidth=3;" edge="1" parent="1" source="3" target="4">
                    <mxGeometry relative="1" as="geometry"/>
                </mxCell>
                <mxCell id="3" value="aks pods" style="aspect=fixed;html=1;points=[];align=center;image;fontSize=12;image=img/lib/azure2/containers/Kubernetes_Services.svg;" vertex="1" parent="1">
                    <mxGeometry x="190" y="310" width="68" height="60" as="geometry"/>
                </mxCell>
                <mxCell id="6" value="mTLS with https" style="edgeStyle=none;html=1;fillColor=#f8cecc;strokeColor=#b85450;strokeWidth=3;" edge="1" parent="1" source="4" target="5">
                    <mxGeometry relative="1" as="geometry"/>
                </mxCell>
                <mxCell id="4" value="forward proxy" style="aspect=fixed;html=1;points=[];align=center;image;fontSize=12;image=img/lib/azure2/other/API_Proxy.svg;" vertex="1" parent="1">
                    <mxGeometry x="380" y="321" width="68" height="38" as="geometry"/>
                </mxCell>
                <mxCell id="5" value="external api" style="aspect=fixed;html=1;points=[];align=center;image;fontSize=12;image=img/lib/azure2/containers/App_Services.svg;" vertex="1" parent="1">
                    <mxGeometry x="710" y="310" width="64" height="64" as="geometry"/>
                </mxCell>
                <mxCell id="9" style="edgeStyle=none;html=1;strokeWidth=2;" edge="1" parent="1" source="8" target="4">
                    <mxGeometry relative="1" as="geometry"/>
                </mxCell>
                <mxCell id="8" value="mTls cert" style="sketch=0;aspect=fixed;html=1;points=[];align=center;image;fontSize=12;image=img/lib/mscae/Certificate.svg;" vertex="1" parent="1">
                    <mxGeometry x="394" y="235" width="39" height="32.76" as="geometry"/>
                </mxCell>
            </root>
        </mxGraphModel>
    </diagram>
</mxfile>